<svg id="visual" viewBox="0 0 4096 60" width="4096" height="60" xmlns="http://www.w3.org/2000/svg" xmlns:xlink="http://www.w3.org/1999/xlink" version="1.1"><path d="M0 46L132 53L264 52L396 48L529 48L661 46L793 53L925 51L1057 49L1189 47L1321 46L1453 52L1586 54L1718 52L1850 52L1982 54L2114 51L2246 51L2378 53L2510 48L2643 51L2775 53L2907 46L3039 47L3171 49L3303 47L3435 48L3567 53L3700 48L3832 49L3964 49L4096 53" fill="none" stroke-linecap="square" stroke-linejoin="bevel" stroke="#b55b49" stroke-width="50"></path></svg>