<?xml version="1.0" encoding="UTF-8" standalone="no"?>
<!-- Created with Inkscape (http://www.inkscape.org/) -->

<svg
   version="1.1"
   id="svg2"
   xml:space="preserve"
   width="475.72"
   height="475.72"
   viewBox="0 0 475.72 475.72"
   xmlns="http://www.w3.org/2000/svg"
   xmlns:svg="http://www.w3.org/2000/svg"><defs
     id="defs6" /><g
     id="g8"
     transform="matrix(1.3333333,0,0,-1.3333333,0,475.72)"><g
       id="g10"
       transform="scale(0.1)"><path
         d="M 0,974.719 C 0,436.398 436.395,0 974.711,0 H 2593.14 c 538.31,0 974.71,436.398 974.71,974.719 V 2593.14 c 0,538.32 -436.4,974.71 -974.71,974.71 H 974.711 C 436.395,3567.85 0,3131.46 0,2593.14 V 974.719"
         style="fill:#e35c4f;fill-opacity:1;fill-rule:nonzero;stroke:none"
         id="path12" /><path
         d="m 1267.47,2045.73 106.04,213.52 106.33,-213.52 h 301.79 L 1508.5,2592.85 H 1238.52 L 565.301,1244.11 h 300.644 l 136.425,270.27 2.86,5.44 130.98,262.24 102.6,206.35 28.66,57.32"
         style="fill:#ffffff;fill-opacity:1;fill-rule:nonzero;stroke:none"
         id="path14" /><path
         d="m 3002.54,2121.97 c 0,63.62 -12.32,124.38 -37.26,181.7 -24.64,57.61 -58.46,107.76 -101.17,150.47 -42.99,42.7 -93.43,76.52 -151.61,101.45 -58.46,24.94 -118.65,37.26 -180.55,37.26 h -876.71 l 134.99,-270.55 h 741.72 c 26.36,0 51.87,-4.87 76.81,-14.9 24.93,-10.32 46.71,-24.65 65.34,-43.28 18.63,-18.63 32.96,-40.41 42.99,-65.34 10.03,-24.94 15.19,-50.45 15.19,-76.81 0,-28.09 -5.16,-54.46 -15.19,-79.39 -10.03,-24.65 -24.36,-46.72 -42.99,-65.06 -18.63,-18.62 -40.41,-33.53 -65.34,-44.42 -24.94,-10.89 -50.45,-16.34 -76.81,-16.34 h -541.96 l 133.84,-267.97 h 408.12 c 27.79,0 54.16,-5.44 79.1,-16.34 24.93,-11.17 46.14,-25.79 64.2,-44.41 17.76,-18.64 31.81,-40.41 41.84,-65.35 10.03,-24.94 15.19,-50.44 15.19,-77.1 0,-26.36 -5.16,-51.87 -15.19,-76.81 -10.03,-24.64 -24.36,-46.71 -42.99,-65.05 -18.63,-18.92 -40.41,-33.25 -65.34,-43.28 -24.94,-10.03 -50.45,-15.19 -76.81,-15.19 h -350.81 l -64.48,128.97 -72.51,145.59 -64.48,128.97 -64.2,128.97 -5.16,10.04 -64.48,128.96 H 1544.04 1347.15 L 1213.3,1648.79 h 465.44 l 65.63,-128.97 2.86,-5.44 69.36,-140.15 64.49,-130.12 h 0.28 l 64.2,-128.96 69.65,-140.15 h 516.74 c 63.62,0 124.09,12.32 181.7,37.26 57.32,24.64 107.47,58.46 150.46,101.17 42.71,42.98 76.53,93.14 101.17,150.46 24.94,57.61 37.26,118.08 37.26,181.7 0,133.85 -47.29,246.48 -142.15,338.19 94.86,93.44 142.15,206.07 142.15,338.19"
         style="fill:#ffffff;fill-opacity:1;fill-rule:nonzero;stroke:none"
         id="path16" /></g></g></svg>
