<?xml version="1.0" encoding="UTF-8" standalone="no"?>
<!-- Created with Inkscape (http://www.inkscape.org/) -->

<svg
   version="1.1"
   id="svg865"
   xml:space="preserve"
   width="413.77332"
   height="274.66666"
   viewBox="0 0 413.77332 274.66666"
   xmlns="http://www.w3.org/2000/svg"
   xmlns:svg="http://www.w3.org/2000/svg"><defs
     id="defs869" /><g
     id="g871"
     transform="matrix(1.3333333,0,0,-1.3333333,0,274.66667)"><g
       id="g873"
       transform="scale(0.1)"><path
         d="m 894.07,1363.36 135.02,271.87 135.39,-271.87 h 384.27 l -347.78,696.65 H 857.211 L 0,342.672 h 382.809 l 173.703,344.117 3.656,6.941 166.766,333.9 130.644,262.75 36.492,72.98"
         style="fill:#e35c4f;fill-opacity:1;fill-rule:nonzero;stroke:none"
         id="path875" /><path
         d="m 3103.33,1460.43 c 0,81.02 -15.69,158.38 -47.44,231.37 -31.38,73.35 -74.44,137.21 -128.82,191.58 -54.73,54.38 -118.96,97.44 -193.04,129.19 -74.45,31.75 -151.08,47.44 -229.9,47.44 H 1387.82 l 171.88,-344.49 h 944.43 c 33.57,0 66.05,-6.2 97.8,-18.98 31.75,-13.14 59.48,-31.38 83.2,-55.1 23.72,-23.72 41.96,-51.46 54.74,-83.2 12.77,-31.75 19.34,-64.23 19.34,-97.81 0,-35.76 -6.57,-69.33 -19.34,-101.08 -12.78,-31.38 -31.02,-59.48 -54.74,-82.83 -23.72,-23.73 -51.45,-42.71 -83.2,-56.57 -31.75,-13.86 -64.23,-20.8 -97.8,-20.8 h -690.08 l 170.42,-341.209 h 519.66 c 35.4,0 68.97,-6.929 100.71,-20.8 31.75,-14.231 58.76,-32.84 81.75,-56.563 22.62,-23.719 40.5,-51.449 53.28,-83.199 12.77,-31.75 19.34,-64.231 19.34,-98.168 0,-33.57 -6.57,-66.051 -19.34,-97.801 -12.78,-31.39 -31.02,-59.48 -54.74,-82.84 -23.72,-24.09 -51.45,-42.332 -83.2,-55.101 -31.75,-12.778 -64.23,-19.34 -97.8,-19.34 h -446.67 l -82.11,164.211 -92.33,185.39 -82.11,164.211 -81.74,164.219 -6.57,12.77 -82.11,164.22 H 1246.23 995.523 L 825.102,857.941 h 592.638 l 83.57,-164.211 3.65,-6.941 88.31,-178.449 82.11,-165.668 h 0.36 L 1757.49,178.449 1846.16,0 h 657.97 c 81.01,0 158.01,15.6914 231.36,47.4414 72.98,31.3789 136.85,74.4496 191.58,128.8206 54.38,54.738 97.44,118.597 128.82,191.59 31.75,73.347 47.44,150.339 47.44,231.359 0,170.418 -60.21,313.84 -181,430.609 120.79,118.97 181,262.39 181,430.61"
         style="fill:#e35c4f;fill-opacity:1;fill-rule:nonzero;stroke:none"
         id="path877" /></g></g></svg>
