<svg id="Layer_1" data-name="Layer 1" xmlns="http://www.w3.org/2000/svg" viewBox="0 0 500 500"><defs><style>.cls-1{fill:#934c12;}.cls-2{fill:#eab671;}.cls-3{fill:#c99965;}.cls-4{fill:none;stroke:#000;stroke-linecap:round;stroke-linejoin:round;stroke-width:15px;}</style></defs><title>rudder</title><path class="cls-1" d="M107.45,134.66a185.17,185.17,0,0,1,27.21-27.21L105.29,78.09a19.23,19.23,0,1,0-27.2,27.2Z"/><path class="cls-1" d="M250,66.63a185.21,185.21,0,0,1,19.24,1V26.12a19.24,19.24,0,0,0-38.48,0V67.63A185.21,185.21,0,0,1,250,66.63Z"/><path class="cls-1" d="M392.55,134.66l29.36-29.37a19.23,19.23,0,1,0-27.2-27.2l-29.37,29.36A185.17,185.17,0,0,1,392.55,134.66Z"/><path class="cls-1" d="M107.45,365.34,78.09,394.71a19.23,19.23,0,1,0,27.2,27.2l29.37-29.36A185.17,185.17,0,0,1,107.45,365.34Z"/><path class="cls-1" d="M66.63,250a185.21,185.21,0,0,1,1-19.24H26.12a19.24,19.24,0,0,0,0,38.48H67.63A185.21,185.21,0,0,1,66.63,250Z"/><path class="cls-1" d="M473.88,230.76H432.37a185.59,185.59,0,0,1,0,38.48h41.51a19.24,19.24,0,0,0,0-38.48Z"/><path class="cls-1" d="M392.55,365.34a185.17,185.17,0,0,1-27.21,27.21l29.37,29.36a19.23,19.23,0,0,0,27.2-27.2Z"/><path class="cls-1" d="M250,433.37a185.21,185.21,0,0,1-19.24-1v41.51a19.24,19.24,0,0,0,38.48,0V432.37A185.21,185.21,0,0,1,250,433.37Z"/><path class="cls-1" d="M250,166a84.14,84.14,0,0,1,19.24,2.24V107.64a144.12,144.12,0,0,0-38.48,0v60.58A84.14,84.14,0,0,1,250,166Z"/><path class="cls-1" d="M205.77,178.57,163,135.74A144.27,144.27,0,0,0,135.74,163l42.83,42.82A84.35,84.35,0,0,1,205.77,178.57Z"/><path class="cls-1" d="M321.43,205.77,364.26,163a144.27,144.27,0,0,0-27.21-27.21l-42.82,42.83A84.35,84.35,0,0,1,321.43,205.77Z"/><path class="cls-1" d="M178.57,294.23l-42.83,42.82A144.27,144.27,0,0,0,163,364.26l42.82-42.83A84.35,84.35,0,0,1,178.57,294.23Z"/><path class="cls-1" d="M392.36,230.76H331.78a83.75,83.75,0,0,1,0,38.48h60.58a144.12,144.12,0,0,0,0-38.48Z"/><path class="cls-1" d="M294.23,321.43l42.82,42.83a144.27,144.27,0,0,0,27.21-27.21l-42.83-42.82A84.35,84.35,0,0,1,294.23,321.43Z"/><path class="cls-1" d="M250,334a84.14,84.14,0,0,1-19.24-2.24v60.58a144.12,144.12,0,0,0,38.48,0V331.78A84.14,84.14,0,0,1,250,334Z"/><path class="cls-1" d="M166,250a84.14,84.14,0,0,1,2.24-19.24H107.64a144.12,144.12,0,0,0,0,38.48h60.58A84.14,84.14,0,0,1,166,250Z"/><path class="cls-2" d="M250,66.63C148.73,66.63,66.63,148.73,66.63,250S148.73,433.37,250,433.37,433.37,351.27,433.37,250,351.27,66.63,250,66.63Zm0,327A143.65,143.65,0,1,1,393.65,250,143.66,143.66,0,0,1,250,393.65Z"/><path class="cls-3" d="M250,406.37c-96.73,0-176-74.9-182.88-169.87q-.48,6.69-.49,13.5c0,101.27,82.1,183.37,183.37,183.37S433.37,351.27,433.37,250q0-6.81-.49-13.5C426,331.47,346.73,406.37,250,406.37Z"/><path class="cls-2" d="M250,166a84,84,0,1,0,84,84A84,84,0,0,0,250,166Zm0,127.89A43.87,43.87,0,1,1,293.87,250,43.87,43.87,0,0,1,250,293.87Z"/><path class="cls-3" d="M250,307a84,84,0,0,1-82.93-70.52,84,84,0,1,0,165.86,0A84,84,0,0,1,250,307Z"/><path class="cls-4" d="M250,66.63C148.73,66.63,66.63,148.73,66.63,250S148.73,433.37,250,433.37,433.37,351.27,433.37,250,351.27,66.63,250,66.63Zm0,327A143.65,143.65,0,1,1,393.65,250,143.66,143.66,0,0,1,250,393.65Z"/><path class="cls-4" d="M107.45,134.66a185.17,185.17,0,0,1,27.21-27.21L105.29,78.09a19.23,19.23,0,1,0-27.2,27.2Z"/><path class="cls-4" d="M250,66.63a185.21,185.21,0,0,1,19.24,1V26.12a19.24,19.24,0,0,0-38.48,0V67.63A185.21,185.21,0,0,1,250,66.63Z"/><path class="cls-4" d="M392.55,134.66l29.36-29.37a19.23,19.23,0,1,0-27.2-27.2l-29.37,29.36A185.17,185.17,0,0,1,392.55,134.66Z"/><path class="cls-4" d="M107.45,365.34,78.09,394.71a19.23,19.23,0,1,0,27.2,27.2l29.37-29.36A185.17,185.17,0,0,1,107.45,365.34Z"/><path class="cls-4" d="M66.63,250a185.21,185.21,0,0,1,1-19.24H26.12a19.24,19.24,0,0,0,0,38.48H67.63A185.21,185.21,0,0,1,66.63,250Z"/><path class="cls-4" d="M473.88,230.76H432.37a185.59,185.59,0,0,1,0,38.48h41.51a19.24,19.24,0,0,0,0-38.48Z"/><path class="cls-4" d="M392.55,365.34a185.17,185.17,0,0,1-27.21,27.21l29.37,29.36a19.23,19.23,0,0,0,27.2-27.2Z"/><path class="cls-4" d="M250,433.37a185.21,185.21,0,0,1-19.24-1v41.51a19.24,19.24,0,0,0,38.48,0V432.37A185.21,185.21,0,0,1,250,433.37Z"/><path class="cls-4" d="M250,166a84.14,84.14,0,0,1,19.24,2.24V107.64a144.12,144.12,0,0,0-38.48,0v60.58A84.14,84.14,0,0,1,250,166Z"/><path class="cls-4" d="M205.77,178.57,163,135.74A144.27,144.27,0,0,0,135.74,163l42.83,42.82A84.35,84.35,0,0,1,205.77,178.57Z"/><path class="cls-4" d="M321.43,205.77,364.26,163a144.27,144.27,0,0,0-27.21-27.21l-42.82,42.83A84.35,84.35,0,0,1,321.43,205.77Z"/><path class="cls-4" d="M178.57,294.23l-42.83,42.82A144.27,144.27,0,0,0,163,364.26l42.82-42.83A84.35,84.35,0,0,1,178.57,294.23Z"/><path class="cls-4" d="M392.36,230.76H331.78a83.75,83.75,0,0,1,0,38.48h60.58a144.12,144.12,0,0,0,0-38.48Z"/><path class="cls-4" d="M294.23,321.43l42.82,42.83a144.27,144.27,0,0,0,27.21-27.21l-42.83-42.82A84.35,84.35,0,0,1,294.23,321.43Z"/><path class="cls-4" d="M250,334a84.14,84.14,0,0,1-19.24-2.24v60.58a144.12,144.12,0,0,0,38.48,0V331.78A84.14,84.14,0,0,1,250,334Z"/><path class="cls-4" d="M166,250a84.14,84.14,0,0,1,2.24-19.24H107.64a144.12,144.12,0,0,0,0,38.48h60.58A84.14,84.14,0,0,1,166,250Z"/><path class="cls-4" d="M250,166a84,84,0,1,0,84,84A84,84,0,0,0,250,166Zm0,127.89A43.87,43.87,0,1,1,293.87,250,43.87,43.87,0,0,1,250,293.87Z"/></svg>