<?xml version="1.0" standalone="no"?>
<!DOCTYPE svg PUBLIC "-//W3C//DTD SVG 20010904//EN"
 "http://www.w3.org/TR/2001/REC-SVG-20010904/DTD/svg10.dtd">
<svg version="1.0" xmlns="http://www.w3.org/2000/svg"
 width="700.000000pt" height="700.000000pt" viewBox="0 0 700.000000 700.000000"
 preserveAspectRatio="xMidYMid meet">
<metadata>
Created by potrace 1.14, written by Peter Selinger 2001-2017
</metadata>
<g transform="translate(0.000000,700.000000) scale(0.100000,-0.100000)"
fill="#000000" stroke="none">
<path d="M3365 6983 c-62 -25 -139 -86 -174 -140 -57 -86 -64 -129 -65 -418
-1 -143 -4 -265 -9 -272 -4 -6 -31 -14 -60 -18 -113 -15 -371 -83 -482 -127
-144 -57 -209 -86 -295 -131 -102 -53 -254 -144 -310 -187 -80 -62 -60 -72
-262 131 -100 99 -199 193 -221 207 -60 40 -127 59 -203 60 -274 1 -456 -287
-335 -532 25 -51 67 -99 221 -254 104 -106 190 -196 190 -201 0 -5 -4 -12 -9
-15 -11 -7 -130 -186 -166 -251 -98 -176 -200 -406 -236 -535 -7 -25 -14 -49
-15 -55 -15 -53 -44 -166 -48 -189 -6 -35 -25 -132 -31 -161 -4 -20 -11 -21
-282 -21 -261 -1 -282 -3 -335 -23 -155 -60 -238 -181 -238 -349 0 -139 49
-237 154 -309 87 -60 129 -66 431 -67 l270 -1 3 -25 c2 -14 12 -72 24 -130 30
-157 83 -333 138 -465 5 -11 19 -45 31 -75 48 -118 195 -380 249 -445 9 -11
27 -37 39 -57 l22 -38 -190 -191 c-227 -227 -255 -270 -258 -402 -7 -283 275
-469 530 -349 51 24 95 62 254 221 106 105 195 191 198 191 3 0 35 -22 72 -48
157 -112 332 -207 541 -293 12 -5 32 -13 45 -18 90 -38 313 -100 447 -126 47
-9 94 -18 105 -20 20 -4 21 -10 20 -257 0 -139 3 -273 7 -297 19 -110 104
-222 204 -271 60 -30 212 -40 278 -19 90 29 176 101 219 184 35 69 40 118 41
389 1 231 3 269 16 272 8 1 33 5 55 9 371 60 780 228 1088 447 37 26 69 48 72
48 3 0 91 -85 196 -190 156 -155 203 -196 255 -221 201 -99 444 5 516 221 32
96 16 223 -38 310 -12 20 -105 120 -208 223 -102 102 -186 189 -186 192 0 4
26 43 58 88 212 299 379 711 437 1077 11 71 -10 66 263 65 136 0 270 3 297 8
115 20 226 101 275 202 33 68 41 221 14 295 -38 105 -133 195 -243 227 -46 13
-105 16 -321 17 -163 0 -268 4 -272 10 -4 6 -10 33 -13 61 -9 68 -58 273 -88
366 -86 266 -220 532 -370 736 -20 28 -37 54 -37 57 0 4 86 94 191 199 226
227 252 267 256 400 3 114 -28 194 -107 274 -78 81 -164 114 -280 109 -132 -5
-173 -31 -399 -257 l-192 -192 -112 75 c-282 189 -550 307 -877 386 -69 17
-145 34 -170 37 -25 3 -52 8 -60 10 -13 4 -15 45 -16 282 -2 258 -3 282 -23
333 -41 107 -116 183 -219 223 -56 22 -211 22 -267 0z m-240 -1932 c0 -176 -2
-321 -5 -324 -3 -2 -39 -17 -80 -32 -41 -16 -90 -37 -107 -48 l-32 -19 -228
228 -227 227 28 22 c45 36 254 141 361 180 79 30 256 82 285 85 3 0 6 -144 5
-319z m865 290 c138 -37 270 -89 394 -155 134 -70 166 -89 166 -100 0 -5 -101
-109 -224 -232 l-224 -223 -43 21 c-24 12 -75 34 -114 48 l-70 27 -1 322 c0
176 2 321 5 321 3 0 53 -13 111 -29z m-1846 -1016 l226 -226 -22 -42 c-12 -23
-34 -73 -48 -112 l-27 -70 -321 0 -321 -1 5 26 c29 133 92 316 146 425 46 92
122 225 130 225 4 0 108 -101 232 -225z m3045 55 c80 -154 114 -248 171 -459
5 -19 7 -37 5 -40 -2 -4 -147 -6 -321 -6 l-318 0 -26 70 c-15 39 -36 90 -48
114 l-21 43 226 226 226 226 23 -30 c13 -16 50 -81 83 -144z m-1574 -385 c127
-31 226 -98 303 -208 60 -86 86 -172 87 -282 0 -127 -28 -213 -103 -315 -126
-170 -374 -243 -575 -168 -297 112 -423 457 -266 732 72 127 210 223 359 249
44 8 143 4 195 -8z m-1315 -940 c15 -38 36 -89 48 -113 l21 -43 -228 -229
-228 -229 -45 77 c-66 111 -110 203 -151 312 -46 123 -88 283 -77 290 5 3 150
6 322 5 l312 0 26 -70z m3064 64 c3 -3 -5 -45 -18 -95 -49 -181 -118 -345
-214 -506 l-45 -77 -229 229 -229 230 26 50 c14 27 35 76 47 107 11 32 25 61
30 64 11 7 625 6 632 -2z m-2299 -823 l60 -22 0 -318 c1 -174 -2 -319 -5 -321
-10 -6 -191 45 -290 82 -108 40 -201 85 -311 150 l-76 45 228 228 229 228 52
-25 c29 -14 80 -35 113 -47z m1263 -152 l226 -227 -29 -23 c-67 -53 -377 -197
-472 -219 -10 -2 -52 -13 -93 -24 -44 -12 -77 -16 -80 -11 -3 5 -6 150 -6 322
l1 312 70 26 c39 15 88 36 110 47 22 12 41 21 43 22 2 1 105 -101 230 -225z"/>
</g>
</svg>
